<svg width="34" height="34" viewBox="0 0 34 34" fill="none" xmlns="http://www.w3.org/2000/svg">
<circle cx="17" cy="17" r="17" fill="#EEEEEE"/>
<path d="M14.4999 24.5C15.1633 25.0183 16.0399 25.3333 16.9999 25.3333C17.9599 25.3333 18.8366 25.0183 19.4999 24.5M9.10826 18.995C8.93076 20.1225 9.72326 20.905 10.6933 21.295C14.4124 22.7908 19.5874 22.7908 23.3066 21.295C24.2766 20.905 25.0691 20.1225 24.8916 18.995C24.7833 18.3016 24.2441 17.725 23.8449 17.1616C23.3224 16.4141 23.2708 15.6 23.2699 14.7325C23.2708 11.3833 20.4641 8.66663 16.9999 8.66663C13.5358 8.66663 10.7291 11.3833 10.7291 14.7333C10.7291 15.6 10.6774 16.415 10.1541 17.1616C9.75576 17.725 9.21742 18.3016 9.10826 18.995Z" stroke="#00A99D" stroke-width="1.5" stroke-linecap="round" stroke-linejoin="round"/>
</svg>
