<svg width="28" height="28" viewBox="0 0 28 28" fill="none" xmlns="http://www.w3.org/2000/svg">
<path d="M21.6325 9.17892C21.7076 9.19722 21.7855 9.20043 21.8618 9.18836C21.9381 9.17629 22.0113 9.14918 22.077 9.10862C22.1428 9.06805 22.1998 9.01483 22.2448 8.95204C22.2898 8.88925 22.3219 8.81815 22.3392 8.74286C22.3565 8.66758 22.3587 8.5896 22.3456 8.51346C22.3325 8.43733 22.3045 8.36454 22.263 8.29934C22.2216 8.23414 22.1676 8.17782 22.1043 8.13364C22.0409 8.08947 21.9694 8.05832 21.8939 8.04201L18.0345 7.15534C17.9589 7.13522 17.88 7.13053 17.8025 7.14155C17.725 7.15257 17.6505 7.17907 17.5835 7.21947C17.5165 7.25987 17.4582 7.31335 17.4123 7.37672C17.3664 7.44009 17.3337 7.51206 17.3161 7.58833C17.2986 7.66461 17.2966 7.74364 17.3102 7.82071C17.3238 7.89778 17.3528 7.97132 17.3955 8.03695C17.4381 8.10257 17.4936 8.15895 17.5584 8.20271C17.6233 8.24647 17.6964 8.27672 17.7732 8.29167L21.6325 9.17892Z" fill="url(#paint0_radial_188_640)" stroke="url(#paint1_radial_188_640)" stroke-width="0.5"/>
<path fill-rule="evenodd" clip-rule="evenodd" d="M19.8334 12.8333C21.0711 12.8333 22.2581 12.3417 23.1333 11.4665C24.0084 10.5913 24.5001 9.40434 24.5001 8.16667C24.5001 6.92899 24.0084 5.742 23.1333 4.86683C22.2581 3.99167 21.0711 3.5 19.8334 3.5C18.5958 3.5 17.4088 3.99167 16.5336 4.86683C15.6584 5.742 15.1668 6.92899 15.1668 8.16667C15.1668 9.40434 15.6584 10.5913 16.5336 11.4665C17.4088 12.3417 18.5958 12.8333 19.8334 12.8333ZM19.8334 11.6667C20.2931 11.6667 20.7482 11.5761 21.1728 11.4002C21.5975 11.2244 21.9833 10.9665 22.3083 10.6415C22.6333 10.3165 22.8911 9.9307 23.067 9.50606C23.2429 9.08142 23.3334 8.62629 23.3334 8.16667C23.3334 7.70704 23.2429 7.25191 23.067 6.82727C22.8911 6.40264 22.6333 6.0168 22.3083 5.69179C21.9833 5.36679 21.5975 5.10898 21.1728 4.93309C20.7482 4.7572 20.2931 4.66667 19.8334 4.66667C18.9052 4.66667 18.0149 5.03542 17.3586 5.69179C16.7022 6.34817 16.3334 7.23841 16.3334 8.16667C16.3334 9.09492 16.7022 9.98516 17.3586 10.6415C18.0149 11.2979 18.9052 11.6667 19.8334 11.6667ZM9.78728 5.39292C9.40986 4.49925 8.14636 4.40942 7.63944 5.2395L3.67045 11.7338C3.21253 12.4828 3.72411 13.4394 4.6172 13.503L11.539 13.9965C12.4315 14.0607 13.0814 13.1868 12.7407 12.3807L9.78728 5.39292ZM8.63986 5.84092L8.63461 5.84792L4.67261 12.3317L4.67378 12.3328L4.67961 12.3352C4.6863 12.3378 4.69342 12.3392 4.70061 12.3393L11.623 12.8328H11.6452C11.6513 12.8308 11.657 12.8278 11.6621 12.824L8.71278 5.84733L8.71044 5.8415C8.70093 5.83584 8.69001 5.83301 8.67894 5.83333C8.66664 5.83211 8.65423 5.83391 8.64278 5.83858L8.64103 5.83917L8.63986 5.84092ZM20.6414 21.21C21.4827 20.8177 22.1337 20.1073 22.4512 19.2351C22.7687 18.3628 22.7267 17.4001 22.3345 16.5588C21.9422 15.7175 21.2318 15.0665 20.3595 14.7489C19.4873 14.4314 18.5246 14.4734 17.6833 14.8657L11.3389 17.8232C10.4976 18.2154 9.84646 18.9259 9.52888 19.7982C9.2113 20.6705 9.25326 21.6333 9.64553 22.4747C10.0378 23.3161 10.7482 23.9672 11.6206 24.2847C12.4929 24.6023 13.4556 24.5604 14.297 24.1681L20.6414 21.21ZM11.8319 18.8813C11.5511 19.0089 11.2984 19.1908 11.0884 19.4166C10.8784 19.6424 10.7152 19.9076 10.6083 20.1969C10.5014 20.4861 10.4529 20.7937 10.4656 21.1018C10.4783 21.4099 10.5519 21.7124 10.6823 21.9919C10.8126 22.2714 10.997 22.5223 11.2249 22.73C11.4528 22.9378 11.7196 23.0983 12.0099 23.2023C12.3002 23.3063 12.6082 23.3518 12.9162 23.336C13.2242 23.3203 13.5259 23.2436 13.8041 23.1105L16.4093 21.8954L14.4376 17.6663L11.8319 18.8813ZM17.4669 21.4025L15.4946 17.1733L18.1762 15.9227C18.4546 15.788 18.7569 15.71 19.0657 15.6932C19.3745 15.6765 19.6835 15.7212 19.9748 15.8249C20.2661 15.9286 20.5339 16.0892 20.7626 16.2973C20.9914 16.5054 21.1764 16.7569 21.3071 17.0372C21.4377 17.3175 21.5114 17.6209 21.5238 17.9299C21.5361 18.2389 21.4869 18.5472 21.3791 18.837C21.2712 19.1268 21.1068 19.3923 20.8955 19.618C20.6841 19.8437 20.43 20.0252 20.1479 20.1518L17.4669 21.4025Z" fill="url(#paint2_radial_188_640)" stroke="url(#paint3_radial_188_640)" stroke-width="0.5"/>
<defs>
<radialGradient id="paint0_radial_188_640" cx="0" cy="0" r="1" gradientTransform="matrix(-1.65496 2.55412 -14.9243 -3.01784 19.835 7.93906)" gradientUnits="userSpaceOnUse">
<stop stop-color="#29ABE2"/>
<stop offset="0.547702" stop-color="#00A99D"/>
</radialGradient>
<radialGradient id="paint1_radial_188_640" cx="0" cy="0" r="1" gradientTransform="matrix(-1.65496 2.55412 -14.9243 -3.01784 19.835 7.93906)" gradientUnits="userSpaceOnUse">
<stop stop-color="#29ABE2"/>
<stop offset="0.547702" stop-color="#00A99D"/>
</radialGradient>
<radialGradient id="paint2_radial_188_640" cx="0" cy="0" r="1" gradientTransform="matrix(-6.87845 26.0349 -62.0295 -30.7617 14.0302 11.6884)" gradientUnits="userSpaceOnUse">
<stop stop-color="#29ABE2"/>
<stop offset="0.547702" stop-color="#00A99D"/>
</radialGradient>
<radialGradient id="paint3_radial_188_640" cx="0" cy="0" r="1" gradientTransform="matrix(-6.87845 26.0349 -62.0295 -30.7617 14.0302 11.6884)" gradientUnits="userSpaceOnUse">
<stop stop-color="#29ABE2"/>
<stop offset="0.547702" stop-color="#00A99D"/>
</radialGradient>
</defs>
</svg>
